# xmcd CD database file
#
# Track frame offsets:
#	150
#	14445
#	26240
#	40492
#	53720
#	65935
#	77642
#	90740
#	104102
#	116292
#	128962
#	143025
#	154352
#	168330
#	179987
#	193300
#	205040
#	217187
#
# Disc length: 3055 seconds
#
# Revision: 0
# Processed by: cddbd v1.4PL0 Copyright (c) Steve Scherf et al.
# Submitted via: CDex 1.50beta10
#
DISCID=1b0bed12
DTITLE=Louis Armstrong - The Great Louis Armstrong CD2
DYEAR=1900
DGENRE=Jazz
TTITLE0=Public Melody Number One
TTITLE1=Jubilee
TTITLE2=I've Got A Heartful Of Rhythm
TTITLE3=I Can't Give You Anything But Love
TTITLE4=Yours and Mine
TTITLE5=Satchel Mouth Swing
TTITLE6=The Trumpet Players Lament
TTITLE7=On the Sunny Side of the Street
TTITLE8=Sun Showers
TTITLE9=Jonah and the Whale
TTITLE10=Cuban Pete
TTITLE11=Shadrack
TTITLE12=True Confession
TTITLE13=Let That Be a Lesson To You
TTITLE14=I Double Dare You
TTITLE15=Alexander's Ragtime Band
TTITLE16=La Cucaracha
TTITLE17=Jeepers Creepers
EXTD=
EXTT0=
EXTT1=
EXTT2=
EXTT3=
EXTT4=
EXTT5=
EXTT6=
EXTT7=
EXTT8=
EXTT9=
EXTT10=
EXTT11=
EXTT12=
EXTT13=
EXTT14=
EXTT15=
EXTT16=
EXTT17=
PLAYORDER=
